<?xml version="1.0" encoding="UTF-8" standalone="no"?>
<svg width="80px" height="80px" viewBox="0 0 80 80" version="1.1" xmlns="http://www.w3.org/2000/svg" xmlns:xlink="http://www.w3.org/1999/xlink">
    <!-- Generator: Sketch 39.1 (31720) - http://www.bohemiancoding.com/sketch -->
    <title>Artboard</title>
    <desc>Created with Sketch.</desc>
    <defs></defs>
    <g id="icons" stroke="none" stroke-width="1" fill="none" fill-rule="evenodd">
        <g id="Artboard" fill="#D7D8DD">
            <rect id="Rectangle-path" transform="translate(39.996787, 40.001435) rotate(45.000000) translate(-39.996787, -40.001435) " x="23.1916152" y="38.2992289" width="33.6103443" height="3.4044118"></rect>
            <rect id="Rectangle-path" transform="translate(34.194355, 45.061444) rotate(45.000000) translate(-34.194355, -45.061444) " x="20.9784814" y="43.359683" width="26.4317465" height="3.40352292"></rect>
            <rect id="Rectangle-path" transform="translate(44.888671, 34.027786) rotate(45.000000) translate(-44.888671, -34.027786) " x="31.6719089" y="32.3255801" width="26.4335243" height="3.4044118"></rect>
            <rect id="Rectangle-path" transform="translate(63.728388, 16.271076) rotate(45.000000) translate(-63.728388, -16.271076) " x="46.9241049" y="14.5693147" width="33.6085666" height="3.40352292"></rect>
            <rect id="Rectangle-path" transform="translate(57.928095, 21.328851) rotate(45.000000) translate(-57.928095, -21.328851) " x="44.7126663" y="19.6270895" width="26.4308576" height="3.40352292"></rect>
            <rect id="Rectangle-path" transform="translate(16.271866, 63.731514) rotate(45.000000) translate(-16.271866, -63.731514) " x="-0.531528586" y="62.0297528" width="33.6067888" height="3.40352292"></rect>
            <rect id="Rectangle-path" transform="translate(21.332488, 57.928222) rotate(44.991897) translate(-21.332488, -57.928222) " x="8.11705905" y="56.2260157" width="26.4308579" height="3.40441183"></rect>
            <path d="M66.4808889,32.7528889 C59.2568889,32.7528889 51.7226667,29.9271111 51.24,29.744 C50.7875556,29.5706667 50.4302222,29.2133333 50.2577778,28.76 C49.9733333,28.016 43.3848889,10.4444444 50.6444444,3.18488889 C52.2924444,1.53777778 54.5857778,0.473777778 57.4595556,0.0213333333 C58.3875556,-0.127111111 59.2586667,0.509333333 59.4044444,1.43822222 C59.5511111,2.36711111 58.9155556,3.23822222 57.9875556,3.384 C55.8391111,3.72177778 54.1786667,4.464 53.0506667,5.59111111 C48.5395556,10.1022222 51.4044444,21.8177778 53.1733333,26.8248889 C58.184,28.5893333 69.9048889,31.4497778 74.4097778,26.9475556 C75.536,25.8204444 76.2782222,24.1582222 76.6151111,22.0053333 C76.76,21.0764444 77.6337778,20.4444444 78.56,20.5866667 C79.4888889,20.7324444 80.1235556,21.6035556 79.9786667,22.5315556 C79.528,25.4115556 78.464,27.7066667 76.816,29.3537778 C74.2568889,31.9146667 70.4142222,32.7528889 66.4808889,32.7528889 L66.4808889,32.7528889 Z" id="Shape"></path>
            <path d="M42.8053333,56.5013333 C35.5333333,56.5013333 27.8328889,53.5955556 27.5093333,53.472 L26.7964444,53.2008889 L26.5244444,52.488 C26.2417778,51.744 19.6551111,34.1733333 26.912,26.9146667 C29.1786667,24.648 32.6382222,23.4995556 37.1946667,23.4995556 C44.4666667,23.4995556 52.1653333,26.4035556 52.4888889,26.5271111 L53.2017778,26.7991111 L53.4737778,27.5111111 C53.7564444,28.2551111 60.3431111,45.8266667 53.0871111,53.0862222 C50.8204444,55.3528889 47.3617778,56.5013333 42.8053333,56.5013333 L42.8053333,56.5013333 Z M29.44,50.5475556 C31.4586667,51.2382222 37.3804444,53.0968889 42.8053333,53.0968889 C46.4257778,53.0968889 49.0755556,52.2835556 50.6791111,50.68 C55.1848889,46.1715556 52.3271111,34.4657778 50.5591111,29.4533333 C48.5422222,28.7617778 42.6204444,26.904 37.1946667,26.904 C33.5733333,26.904 30.9235556,27.7173333 29.3191111,29.3226667 C24.8213333,33.8213333 27.6764444,45.5324444 29.44,50.5475556 L29.44,50.5475556 Z" id="Shape"></path>
            <path d="M22.2675556,80 C21.4435556,80 20.72,79.4008889 20.5884444,78.5626667 C20.4426667,77.6337778 21.0773333,76.7626667 22.0062222,76.6177778 C24.16,76.2791111 25.8222222,75.5368889 26.9475556,74.4124444 C31.4595556,69.8995556 28.5946667,58.184 26.8266667,53.176 C21.816,51.4124444 10.096,48.5511111 5.59111111,53.0524444 C4.46311111,54.1795556 3.72177778,55.8408889 3.38577778,57.9893333 C3.24088889,58.9182222 2.36088889,59.5555556 1.44177778,59.4071111 C0.512,59.2622222 -0.122666667,58.3911111 0.0222222222,57.4631111 C0.472,54.5857778 1.536,52.2915556 3.18488889,50.6435556 C10.4453333,43.3875556 28.0151111,49.9724444 28.7591111,50.2577778 C29.2124444,50.4293333 29.5688889,50.7875556 29.7413333,51.24 C30.0257778,51.9848889 36.6142222,69.5546667 29.3528889,76.8151111 C27.7084444,78.4622222 25.4142222,79.5262222 22.5333333,79.9777778 C22.4444444,79.9937778 22.3555556,80 22.2675556,80 L22.2675556,80 Z" id="Shape"></path>
        </g>
    </g>
</svg>