<?xml version="1.0" encoding="UTF-8" standalone="no"?>
<svg width="80px" height="80px" viewBox="0 0 80 80" version="1.1" xmlns="http://www.w3.org/2000/svg" xmlns:xlink="http://www.w3.org/1999/xlink">
    <!-- Generator: Sketch 39.1 (31720) - http://www.bohemiancoding.com/sketch -->
    <title>Artboard Copy 3</title>
    <desc>Created with Sketch.</desc>
    <defs></defs>
    <g id="icons" stroke="none" stroke-width="1" fill="none" fill-rule="evenodd">
        <g id="Artboard-Copy-3" fill="#D7D8DD">
            <path d="M8.06133625,49.7702802 L8.06133625,49.7702802 L8.06133625,15.7016419 L8.06133625,8.33810331 C8.06133625,6.96357612 9.20043812,5.88359046 10.5147864,5.88359046 L69.3975904,5.88359046 C70.7995619,5.88359046 71.9386637,6.96357612 71.9386637,8.33810331 L71.9386637,13.050768 L71.9386637,49.7702802 L80,71.5663543 L80,71.8608959 C80,73.2354231 78.9485214,74.4135892 77.6341731,74.4135892 L2.36582694,74.4135892 C1.05147864,74.4135892 0,73.2354231 0,71.8608959 L0,71.5663543 L8.06133625,49.7702802 L8.06133625,49.7702802 Z M76.3198248,71.0754518 L69.2223439,51.9302515 L10.6900329,51.9302515 L3.59255203,71.0754518 L76.3198248,71.0754518 L76.3198248,71.0754518 Z M68.6966046,48.395753 L68.6966046,9.22172794 L11.2157722,9.22172794 L11.2157722,48.395753 L68.6966046,48.395753 L68.6966046,48.395753 Z" id="Shape"></path>
            <path d="M57.0434783,28.6605891 C57.5652174,29.3478261 57.5652174,30.1332398 57.0434783,30.9186536 C54.8695652,33.9621318 52.6956522,37.0056101 50.5217391,40.0490884 C49.3913043,41.6199158 47.4782609,39.4600281 48.5217391,37.7910238 C50.4347826,35.1402525 52.2608696,32.3913043 54.173913,29.740533 C52.2608696,27.1879383 50.4347826,24.5371669 48.5217391,21.7882188 C47.3913043,20.2173913 49.3913043,17.9593268 50.5217391,19.5301543 C52.6956522,22.5736325 54.8695652,25.6171108 57.0434783,28.6605891 L57.0434783,28.6605891 Z" id="Shape"></path>
            <path d="M53.1304348,65.6732118 L53.1304348,65.9677419 C53.1304348,67.1458626 52.173913,68.1276297 51.1304348,68.1276297 L27.0434783,68.1276297 C25.9130435,68.1276297 25.0434783,67.1458626 25.0434783,65.9677419 L25.0434783,65.6732118 L24.9565217,65.6732118 L26.6086957,61.058906 C26.7826087,60.0771388 27.5652174,59.2917251 28.6086957,59.2917251 L49.4782609,59.2917251 C50.5217391,59.2917251 51.3043478,60.0771388 51.4782609,61.058906 L53.1304348,65.6732118 L53.1304348,65.6732118 Z M50.4347826,65.4768583 L49.2173913,62.0406732 L28.8695652,62.0406732 L27.6521739,65.4768583 L50.4347826,65.4768583 L50.4347826,65.4768583 Z" id="Shape"></path>
            <path d="M42.8695652,20.0210379 C43.7391304,18.2538569 46.0869565,19.8246844 45.3043478,21.5918654 C42.5217391,27.6788219 39.6521739,33.7657784 36.7826087,39.8527349 C35.9130435,41.7180926 33.4782609,40.0490884 34.3478261,38.2819074 C37.1304348,32.1949509 40,26.1079944 42.8695652,20.0210379 L42.8695652,20.0210379 Z" id="Shape"></path>
            <path d="M31.3043478,37.8892006 C32.4347826,39.4600281 30.4347826,41.7180926 29.3043478,40.1472651 C27.0434783,36.9074334 24.8695652,33.8639551 22.7826087,30.9186536 C22.2608696,30.2314165 22.2608696,29.4460028 22.7826087,28.6605891 C24.9565217,25.6171108 27.1304348,22.5736325 29.3043478,19.5301543 C30.4347826,17.9593268 32.3478261,20.1192146 31.3043478,21.7882188 C29.3913043,24.4389902 27.5652174,27.1879383 25.6521739,29.8387097 C27.5652174,32.4894811 29.3913043,35.2384292 31.3043478,37.8892006 L31.3043478,37.8892006 Z" id="Shape"></path>
        </g>
    </g>
</svg>