<?xml version="1.0" encoding="UTF-8" standalone="no"?>
<svg width="19px" height="19px" viewBox="0 0 19 19" version="1.1" xmlns="http://www.w3.org/2000/svg" xmlns:xlink="http://www.w3.org/1999/xlink" xmlns:sketch="http://www.bohemiancoding.com/sketch/ns">
    <!-- Generator: Sketch 3.3.3 (12081) - http://www.bohemiancoding.com/sketch -->
    <title>dribbble</title>
    <desc>Created with Sketch.</desc>
    <defs></defs>
    <g id="Page-1" stroke="none" stroke-width="1" fill="none" fill-rule="evenodd" sketch:type="MSPage">
        <g id="Desktop" sketch:type="MSArtboardGroup" transform="translate(-364.000000, -903.000000)">
            <g id="dribbble" sketch:type="MSLayerGroup" transform="translate(363.000000, 903.000000)">
                <rect id="Rectangle-path" sketch:type="MSShapeGroup" x="0" y="0" width="20" height="20"></rect>
                <path d="M9.948,7.221 C8.603,4.83 7.165,2.881 7.06,2.739 C4.89,3.763 3.271,5.762 2.766,8.171 C2.97,8.174 6.212,8.213 9.948,7.221 L9.948,7.221 Z M10.917,9.834 C11.019,9.801 11.121,9.771 11.224,9.741 C11.029,9.299 10.815,8.855 10.593,8.419 C6.587,9.617 2.743,9.531 2.606,9.527 C2.604,9.609 2.6,9.691 2.6,9.773 C2.6,11.774 3.355,13.597 4.596,14.974 C4.594,14.972 4.591,14.968 4.591,14.968 C4.591,14.968 6.719,11.191 10.917,9.834 L10.917,9.834 Z M5.597,15.906 L5.598,15.903 C5.54,15.857 5.478,15.816 5.422,15.769 C5.525,15.852 5.597,15.906 5.597,15.906 L5.597,15.906 Z M8.515,2.221 C8.508,2.223 8.501,2.225 8.494,2.227 C8.506,2.223 8.514,2.222 8.515,2.221 L8.515,2.221 L8.515,2.221 Z M15.516,3.936 C14.146,2.729 12.348,1.995 10.378,1.995 C9.746,1.995 9.133,2.073 8.545,2.215 C8.664,2.372 10.124,4.312 11.453,6.753 C14.387,5.652 15.496,3.968 15.516,3.936 L15.516,3.936 Z M10.378,18.883 C5.347,18.883 1.269,14.805 1.269,9.774 C1.269,4.744 5.347,0.666 10.378,0.666 C15.409,0.666 19.487,4.744 19.487,9.774 C19.487,14.805 15.409,18.883 10.378,18.883 L10.378,18.883 Z M11.702,11.047 C7.136,12.638 5.629,15.838 5.599,15.903 C6.918,16.933 8.575,17.552 10.379,17.552 C11.457,17.552 12.483,17.333 13.416,16.937 C13.301,16.255 12.848,13.873 11.754,11.029 C11.736,11.035 11.719,11.041 11.702,11.047 L11.702,11.047 Z M12.052,7.911 C12.234,8.282 12.407,8.659 12.569,9.039 C12.627,9.174 12.682,9.309 12.737,9.441 C15.424,9.103 18.069,9.676 18.155,9.695 C18.136,7.849 17.477,6.157 16.385,4.832 C16.37,4.855 15.122,6.657 12.052,7.911 L12.052,7.911 Z M13.211,10.67 C14.232,13.477 14.647,15.761 14.725,16.226 C16.472,15.047 17.713,13.177 18.058,11.008 C17.904,10.958 15.726,10.267 13.211,10.67 L13.211,10.67 Z" id="Shape" fill="#000000" sketch:type="MSShapeGroup"></path>
            </g>
        </g>
    </g>
</svg>