<?xml version="1.0" encoding="UTF-8" standalone="no"?>
<svg width="60px" height="60px" viewBox="0 0 60 60" version="1.1" xmlns="http://www.w3.org/2000/svg" xmlns:xlink="http://www.w3.org/1999/xlink" xmlns:sketch="http://www.bohemiancoding.com/sketch/ns">
    <!-- Generator: Sketch 3.4.1 (15681) - http://www.bohemiancoding.com/sketch -->
    <title>noun_100054_cc</title>
    <desc>Created with Sketch.</desc>
    <defs></defs>
    <g id="Page-1" stroke="none" stroke-width="1" fill="none" fill-rule="evenodd" sketch:type="MSPage">
        <g id="Marketing-Page" sketch:type="MSArtboardGroup" transform="translate(-610.000000, -1382.000000)" fill="#000000">
            <g id="noun_156675_cc-+-Get-an-Entry-+-Cras-mattis-consecte-Copy" sketch:type="MSLayerGroup" transform="translate(490.000000, 1382.000000)">
                <g id="noun_100054_cc" transform="translate(120.000000, 0.000000)" sketch:type="MSShapeGroup">
                    <g id="Group">
                        <path d="M44.6666667,15.4 C45.0666667,15.8 45.3333333,16.3333333 45.3333333,16.9333333 C45.3333333,17.5333333 45.1333333,18.0666667 44.6666667,18.4666667 C44.2666667,18.8666667 43.6666667,19.1333333 43.1333333,19.1333333 C42.5333333,19.1333333 42,18.9333333 41.6,18.4666667 C41.2,18.0666667 40.9333333,17.5333333 40.9333333,16.9333333 C40.9333333,16.3333333 41.1333333,15.8 41.6,15.4 C42,15 42.5333333,14.7333333 43.1333333,14.7333333 C43.6666667,14.8 44.2666667,15 44.6666667,15.4 L44.6666667,15.4 Z M45.9333333,11.0666667 C45.5333333,11.4666667 45.2666667,12.0666667 45.2666667,12.6 C45.2666667,13.2 45.4666667,13.7333333 45.9333333,14.1333333 C46.3333333,14.5333333 46.8666667,14.8 47.4666667,14.8 C48.0666667,14.8 48.6,14.6 49,14.1333333 C49.4,13.7333333 49.6666667,13.2 49.6666667,12.6 C49.6666667,12 49.4666667,11.4666667 49,11.0666667 C48.6,10.6666667 48.0666667,10.4 47.4666667,10.4 C46.8666667,10.4666667 46.3333333,10.6666667 45.9333333,11.0666667 L45.9333333,11.0666667 Z M7.53333333,39.3333333 L3.2,41.5333333 C2.33333333,41.9333333 2,43 2.4,43.8666667 C2.73333333,44.4666667 3.33333333,44.8 3.93333333,44.8 C4.2,44.8 4.46666667,44.7333333 4.73333333,44.6 L9.06666667,42.4 C9.93333333,42 10.2666667,40.9333333 9.86666667,40.0666667 C9.46666667,39.2 8.4,38.8 7.53333333,39.3333333 L7.53333333,39.3333333 Z M59.5333333,13.8666667 L38.4,35 L40.4,47.1333333 C40.4666667,47.6 40.3333333,48.1333333 40.0666667,48.5333333 L31.4,59.3333333 C31.0666667,59.7333333 30.5333333,60 30.0666667,60 L29.8666667,60 C29.2666667,59.9333333 28.7333333,59.5333333 28.4666667,59 L20.0666667,40 L1.06666667,31.6 C0.533333333,31.4 0.2,30.8666667 0.0666666667,30.3333333 C-0.0666666667,29.8 0.133333333,29.2 0.533333333,28.8 L9.2,20.1333333 C9.6,19.7333333 10.1333333,19.5333333 10.6666667,19.6666667 L25,21.7333333 L46.1333333,0.533333333 C46.4666667,0.2 46.9333333,0 47.3333333,0 L58.2,0 C59.1333333,0 59.9333333,0.8 59.9333333,1.73333333 L59.9333333,12.6 C60.0666667,13.0666667 59.8666667,13.4666667 59.5333333,13.8666667 L59.5333333,13.8666667 Z M56.6,3.46666667 L48.2,3.46666667 L27,24.6666667 C26.6,25.0666667 26.0666667,25.2666667 25.5333333,25.1333333 L11.2,23.0666667 L4.93333333,29.3333333 L13.6,33.2 L15.9333333,30.8666667 L15.9333333,30.8666667 L18.1333333,28.6666667 C18.8,28 19.9333333,28 20.6,28.6666667 C21.2666667,29.3333333 21.2666667,30.4666667 20.6,31.1333333 L18.4,33.3333333 L18.4,33.3333333 L17,34.6666667 L22.2,37 C22.6,37.2 22.9333333,37.4666667 23.0666667,37.8666667 L25.4,43.0666667 L26.8,41.6666667 L26.8,41.6666667 L29,39.4666667 C29.6666667,38.8 30.8,38.8 31.4666667,39.4666667 C32.1333333,40.1333333 32.1333333,41.2666667 31.4666667,41.9333333 L29.2666667,44.1333333 L29.2666667,44.1333333 L26.9333333,46.4666667 L30.6666667,54.8 L37.0666667,46.8 L34.8666667,34.6666667 C34.8,34.1333333 34.9333333,33.5333333 35.3333333,33.1333333 L56.5333333,11.9333333 L56.5333333,3.46666667 L56.6,3.46666667 L56.6,3.46666667 Z M16.2666667,57.6666667 C16.5333333,57.8 16.8,57.8666667 17.0666667,57.8666667 C17.7333333,57.8666667 18.3333333,57.5333333 18.6,56.9333333 L20.8,52.6 C21.2,51.7333333 20.8666667,50.6666667 20,50.2666667 C19.1333333,49.8666667 18.0666667,50.2 17.6666667,51.0666667 L15.4666667,55.3333333 C15.0666667,56.2 15.4,57.2 16.2666667,57.6666667 L16.2666667,57.6666667 Z M13.6,44 L7.06666667,50.5333333 C6.4,51.2 6.4,52.3333333 7.06666667,53 C7.4,53.3333333 7.86666667,53.5333333 8.26666667,53.5333333 C8.73333333,53.5333333 9.13333333,53.3333333 9.46666667,53 L16,46.4666667 C16.6666667,45.8 16.6666667,44.6666667 16,44 C15.4,43.3333333 14.2666667,43.3333333 13.6,44 L13.6,44 Z" id="Shape"></path>
                    </g>
                </g>
            </g>
        </g>
    </g>
</svg>