<?xml version="1.0" encoding="UTF-8" standalone="no"?>
<svg width="75px" height="59px" viewBox="0 0 75 59" version="1.1" xmlns="http://www.w3.org/2000/svg" xmlns:xlink="http://www.w3.org/1999/xlink" xmlns:sketch="http://www.bohemiancoding.com/sketch/ns">
    <!-- Generator: Sketch 3.4.1 (15681) - http://www.bohemiancoding.com/sketch -->
    <title>noun_156675_cc</title>
    <desc>Created with Sketch.</desc>
    <defs></defs>
    <g id="Page-1" stroke="none" stroke-width="1" fill="none" fill-rule="evenodd" sketch:type="MSPage">
        <g id="Marketing-Page" sketch:type="MSArtboardGroup" transform="translate(-603.000000, -1067.000000)" fill="#000000">
            <g id="noun_156675_cc-+-Get-an-Entry-+-Cras-mattis-consecte" sketch:type="MSLayerGroup" transform="translate(490.000000, 1067.000000)">
                <g id="noun_156675_cc" transform="translate(113.000000, 0.000000)" sketch:type="MSShapeGroup">
                    <g id="Group">
                        <g id="Shape">
                            <path d="M48.748125,37.1127188 L46.7563125,31.4457188 L44.7644062,37.1127188 L38.3188125,37.1127188 L43.5334687,41.0963438 L41.5416563,47.5420313 L46.7563125,43.5584063 L51.9709687,47.5420313 L49.9791563,41.0963438 L55.1938125,37.1127188 L48.748125,37.1127188 Z"></path>
                            <path d="M73.0063125,34.3002188 L74.8813125,34.3002188 L74.8813125,28.6752188 C74.8813125,25.5734063 72.358125,23.0502188 69.2563125,23.0502188 L65.5258125,23.0502188 L64.8957188,21.3190313 L63.1333125,21.9606563 C62.6672812,22.1309063 62.1586875,22.1070938 61.7023125,21.8938125 C61.2459375,21.6805313 60.90075,21.3069375 60.7309687,20.839125 L57.5243437,12.0308438 C57.3544688,11.5639688 57.3782813,11.0549063 57.5911875,10.5980625 C57.8040937,10.1421563 58.1780625,9.79696875 58.6449375,9.6275625 L60.4070625,8.9863125 L58.4829375,3.7005 C57.6771563,1.48678125 55.5495,0 53.1883125,0 C52.53375,0 51.8895938,0.11353125 51.273,0.33871875 L3.700875,17.6532188 C0.78675,18.7142813 -0.721125,21.9488438 0.3395625,24.862125 L8.676375,47.768625 C9.37021875,49.6741875 11.0466562,51.0344063 13.0064063,51.3777187 L13.0064063,53.0503125 C13.0064063,56.152125 15.5295938,58.6753125 18.6314063,58.6753125 L69.2564063,58.6753125 C72.3582188,58.6753125 74.8814063,56.152125 74.8814063,53.0503125 L74.8814063,47.4253125 L73.0064063,47.4253125 C71.9723438,47.4253125 71.1314063,46.5839062 71.1314063,45.5503125 L71.1314063,36.1753125 C71.1313125,35.141625 71.9721563,34.3002188 73.0063125,34.3002188 L73.0063125,34.3002188 Z M13.0063125,47.4354375 C12.64425,47.2185938 12.3496875,46.896 12.2001562,46.4858438 L3.86334375,23.5802813 C3.50990625,22.6089375 4.01259375,21.5304375 4.9839375,21.1760625 L8.507625,19.8935625 L13.0062187,32.2534688 L13.0062187,47.4354375 L13.0063125,47.4354375 Z M14.364,25.020375 L12.0313125,18.61125 L52.5561563,3.86165625 C52.7603438,3.7875 52.9726875,3.75 53.1883125,3.75 C53.9789063,3.75 54.6906563,4.24528125 54.9589688,4.98234375 L55.7175938,7.0665 C55.0819688,7.59215625 54.5520938,8.24184375 54.1921875,9.01340625 C53.5559063,10.3785 53.488125,11.9055938 54.000375,13.313625 L57.207,22.1219063 C57.326625,22.4503125 57.4819688,22.75725 57.6574688,23.0502188 L18.6312187,23.0502188 C16.9247812,23.0502188 15.3964687,23.8167188 14.364,25.020375 L14.364,25.020375 Z M22.3813125,54.9252188 L18.6313125,54.9252188 C17.59725,54.9252188 16.7563125,54.0838125 16.7563125,53.0502188 L16.7563125,28.6752188 C16.7563125,27.641625 17.59725,26.8002188 18.6313125,26.8002188 L22.3813125,26.8002188 L22.3813125,54.9252188 L22.3813125,54.9252188 Z M71.1313125,50.8470938 L71.1313125,53.0502188 C71.1313125,54.0838125 70.290375,54.9252188 69.2563125,54.9252188 L26.1313125,54.9252188 L26.1313125,26.8002188 L69.2563125,26.8002188 C70.290375,26.8002188 71.1313125,27.641625 71.1313125,28.6752188 L71.1313125,30.8783438 C68.950125,31.653 67.3813125,33.731625 67.3813125,36.1752188 L67.3813125,45.5502188 C67.3813125,47.9938125 68.950125,50.0724375 71.1313125,50.8470938 L71.1313125,50.8470938 Z"></path>
                        </g>
                    </g>
                </g>
            </g>
        </g>
    </g>
</svg>