<?xml version="1.0" encoding="UTF-8" standalone="no"?>
<svg width="60px" height="60px" viewBox="0 0 60 60" version="1.1" xmlns="http://www.w3.org/2000/svg" xmlns:xlink="http://www.w3.org/1999/xlink" xmlns:sketch="http://www.bohemiancoding.com/sketch/ns">
    <!-- Generator: Sketch 3.4.1 (15681) - http://www.bohemiancoding.com/sketch -->
    <title>noun_9511_cc</title>
    <desc>Created with Sketch.</desc>
    <defs></defs>
    <g id="Page-1" stroke="none" stroke-width="1" fill="none" fill-rule="evenodd" sketch:type="MSPage">
        <g id="Marketing-Page" sketch:type="MSArtboardGroup" transform="translate(-401.000000, -856.000000)" fill="#000000">
            <g id="noun_9511_cc-+-Nullam-id-dolor-id-n-+-Buyer" sketch:type="MSLayerGroup" transform="translate(283.000000, 856.000000)">
                <g id="noun_9511_cc" transform="translate(118.000000, 0.000000)" sketch:type="MSShapeGroup">
                    <g id="Group">
                        <path d="M57.6082979,7.9392 L14.3514894,7.9392 C13.5893617,2.0766 9.40531915,0.1662 7.08510638,0.0054 L0.159574468,0 L0.159574468,3.8454 L6.8112766,3.8454 C7.39914894,3.9312 10.392766,4.6242 10.392766,9.8622 L10.392766,32.4582 L10.392766,38.2056 C10.392766,41.0376 11.8710638,42.8562 13.6755319,43.9758 C11.6374468,45.6486 10.3404255,48.1026 10.3404255,50.8392 C10.3404255,55.869 14.6917021,59.9598 20.0412766,59.9598 C25.3908511,59.9598 29.742766,55.869 29.742766,50.8392 C29.742766,48.8472 29.0514894,47.0076 27.8929787,45.5046 L41.1370213,45.5064 C39.9797872,47.0088 39.2885106,48.8478 39.2885106,50.8392 C39.2885106,55.869 43.6397872,59.9598 48.9893617,59.9598 C54.3389362,59.9598 58.6914894,55.869 58.6914894,50.8392 C58.6914894,45.8238 54.3587234,41.7402 49.0257447,41.7222 L49.0257447,41.6622 L18.7034043,41.6622 C18.1717021,41.6172 14.483617,41.1936 14.483617,38.205 L14.483617,34.38 L53.4797872,34.38 C57.7455319,34.38 59.5059574,30.9774 59.6502128,28.6896 C59.6521277,28.6518 59.6534043,28.614 59.6534043,28.5768 L59.6534043,9.8622 C59.6534043,8.8002 58.7374468,7.9392 57.6082979,7.9392 L57.6082979,7.9392 Z M20.0419149,56.1138 C16.9480851,56.1138 14.4312766,53.748 14.4312766,50.8392 C14.4312766,47.931 16.9480851,45.5652 20.0419149,45.5652 C23.1357447,45.5652 25.6531915,47.931 25.6531915,50.8392 C25.6531915,53.748 23.136383,56.1138 20.0419149,56.1138 L20.0419149,56.1138 Z M54.6012766,50.8392 C54.6012766,53.748 52.0851064,56.1138 48.99,56.1138 C45.8961702,56.1138 43.38,53.748 43.38,50.8392 C43.38,47.931 45.8961702,45.5652 48.99,45.5652 C52.0851064,45.5652 54.6012766,47.9316 54.6012766,50.8392 L54.6012766,50.8392 Z M55.5631915,28.497 C55.4968085,29.151 55.1565957,30.5352 53.4797872,30.5352 L14.483617,30.5352 L14.483617,11.7846 L55.5631915,11.7846 L55.5631915,28.497 L55.5631915,28.497 Z" id="Shape"></path>
                    </g>
                </g>
            </g>
        </g>
    </g>
</svg>