<?xml version="1.0" encoding="UTF-8" standalone="no"?>
<svg width="60px" height="60px" viewBox="0 0 60 60" version="1.1" xmlns="http://www.w3.org/2000/svg" xmlns:xlink="http://www.w3.org/1999/xlink" xmlns:sketch="http://www.bohemiancoding.com/sketch/ns">
    <!-- Generator: Sketch 3.4.1 (15681) - http://www.bohemiancoding.com/sketch -->
    <title>noun_98754_cc</title>
    <desc>Created with Sketch.</desc>
    <defs></defs>
    <g id="Page-1" stroke="none" stroke-width="1" fill="none" fill-rule="evenodd" sketch:type="MSPage">
        <g id="Marketing-Page" sketch:type="MSArtboardGroup" transform="translate(-861.000000, -856.000000)" fill="#000000">
            <g id="Praesent-commodo-cur-+-Seller-+-noun_98754_cc" sketch:type="MSLayerGroup" transform="translate(741.000000, 856.000000)">
                <g id="noun_98754_cc" transform="translate(120.000000, 0.000000)" sketch:type="MSShapeGroup">
                    <g id="Group">
                        <path d="M53.52875,29.2219355 C51.99625,29.2219355 50.599375,28.6154839 49.555625,27.6251613 C48.511875,28.6154839 47.115625,29.2219355 45.583125,29.2219355 C44.050625,29.2219355 42.65375,28.6154839 41.61,27.6251613 C40.56625,28.6154839 39.169375,29.2219355 37.63625,29.2219355 C36.104375,29.2219355 34.7075,28.6154839 33.66375,27.6251613 C32.62,28.6154839 31.223125,29.2219355 29.690625,29.2219355 C28.158125,29.2219355 26.76125,28.6154839 25.7175,27.6251613 C24.67375,28.6154839 23.276875,29.2219355 21.744375,29.2219355 C20.211875,29.2219355 18.815,28.6154839 17.771875,27.6251613 C16.728125,28.6154839 15.330625,29.2219355 13.798125,29.2219355 C12.265625,29.2219355 10.86875,28.6154839 9.825,27.6251613 C8.78125,28.6154839 7.385,29.2219355 5.8525,29.2219355 C2.6275,29.2219355 0.004375,26.5374194 0.004375,23.2374194 C0.004375,23.1625806 0.008125,23.0890323 0.01375,23.0154839 C0.0025,22.8032258 0.025,22.5896774 0.084375,22.3832258 C0.264375,21.1012903 0.84,19.9258065 1.731875,19.0141935 L7.085,8.3083871 C7.405625,7.66709677 8.05,7.26322581 8.75375,7.26322581 L8.760625,7.26322581 L51.259375,7.42322581 C51.983125,7.42580645 52.640625,7.85483871 52.94875,8.52516129 L57.87625,19.2406452 C58.6725,20.1516129 59.17875,21.3096774 59.3175,22.5509677 C59.3325,22.6374194 59.341875,22.7258065 59.345,22.8135484 C59.364375,22.9535484 59.376875,23.0929032 59.376875,23.2374194 C59.376875,26.5374194 56.75375,29.2219355 53.52875,29.2219355 L53.52875,29.2219355 Z M55.603125,23.0864516 C55.600625,23.0683871 55.59875,23.0496774 55.5975,23.0322581 C55.54875,22.5193548 55.335625,22.0490323 54.99625,21.7077419 C54.836875,21.5477419 54.706875,21.3606452 54.611875,21.1541935 L50.060625,11.2567742 L9.898125,11.1051613 L4.9225,21.0587097 C4.81375,21.276129 4.665625,21.4703226 4.48625,21.6309677 C4.083125,21.9903226 3.83375,22.4903226 3.783125,23.0380645 C3.781875,23.0541935 3.78,23.0703226 3.778125,23.0864516 C3.771875,23.1645161 3.7625,23.2406452 3.753125,23.3167742 C3.754375,24.4212903 4.695625,25.3845161 5.8525,25.3845161 C7.009375,25.3845161 7.95,24.4212903 7.95,23.2374194 C7.945625,23.2012903 7.92875,23.1212903 7.92625,23.0851613 C7.885,22.5516129 8.063125,22.0245161 8.418125,21.6309677 C9.12625,20.8464516 10.488125,20.843871 11.198125,21.6270968 C11.553125,22.0174194 11.763125,22.5419355 11.725,23.0729032 C11.721875,23.1116129 11.70625,23.2593548 11.699375,23.3090323 C11.699375,23.323871 11.699375,23.3380645 11.69875,23.3516129 C11.72,24.4412903 12.653125,25.3845161 13.798125,25.3845161 C14.955625,25.3845161 15.896875,24.4212903 15.896875,23.2374194 C15.89125,23.1974194 15.875,23.1135484 15.871875,23.0729032 C15.83375,22.5419355 16.01375,22.0174194 16.36875,21.6270968 C17.07875,20.843871 18.440625,20.8464516 19.14875,21.6309677 C19.50375,22.0245161 19.711875,22.5516129 19.670625,23.0851613 C19.668125,23.12 19.65125,23.2645161 19.64625,23.3070968 L19.64625,23.3367742 C19.660625,24.436129 20.59625,25.3845161 21.744375,25.3845161 C22.90125,25.3845161 23.8425,24.4212903 23.8425,23.2374194 C23.836875,23.1974194 23.820625,23.1135484 23.8175,23.0729032 C23.779375,22.5419355 23.959375,22.0174194 24.314375,21.6270968 C25.02375,20.8451613 26.38125,20.8458065 27.090625,21.6264516 C27.445,22.0174194 27.655,22.5412903 27.6175,23.0729032 C27.614375,23.1109677 27.59875,23.2593548 27.591875,23.3090323 C27.591875,23.323871 27.591875,23.3380645 27.59125,23.3516129 C27.6125,24.4412903 28.545625,25.3845161 29.690625,25.3845161 C30.848125,25.3845161 31.78875,24.4212903 31.78875,23.2374194 C31.784375,23.1993548 31.766875,23.1225806 31.764375,23.0845161 C31.723125,22.5509677 31.90125,22.0245161 32.25625,21.6309677 C32.965625,20.8451613 34.330625,20.8451613 35.040625,21.6309677 C35.395625,22.0245161 35.604375,22.5516129 35.5625,23.0851613 C35.56,23.12 35.54375,23.2645161 35.538125,23.3070968 L35.538125,23.3367742 C35.553125,24.436129 36.48875,25.3845161 37.63625,25.3845161 C38.79375,25.3845161 39.735,24.4212903 39.735,23.2374194 C39.729375,23.1974194 39.713125,23.1135484 39.71,23.0729032 C39.671875,22.5419355 39.851875,22.0174194 40.206875,21.6270968 C40.915625,20.8451613 42.27375,20.8451613 42.983125,21.6270968 C43.3375,22.0174194 43.5475,22.5419355 43.51,23.0729032 C43.506875,23.1116129 43.490625,23.2593548 43.484375,23.3090323 C43.484375,23.323871 43.484375,23.3380645 43.48375,23.3516129 C43.505,24.4412903 44.438125,25.3845161 45.583125,25.3845161 C46.739375,25.3845161 47.680625,24.4212903 47.680625,23.2374194 C47.675625,23.2012903 47.659375,23.1212903 47.656875,23.0851613 C47.615625,22.5516129 47.79375,22.0245161 48.14875,21.6309677 C48.858125,20.8451613 50.2225,20.8451613 50.933125,21.6309677 C51.2875,22.0245161 51.49625,22.5516129 51.455,23.0851613 C51.4525,23.1206452 51.43625,23.2625806 51.43,23.3103226 C51.43,23.3251613 51.43,23.3393548 51.429375,23.3535484 C51.450625,24.4419355 52.384375,25.3845161 53.52875,25.3845161 C54.68625,25.3845161 55.626875,24.4212903 55.626875,23.2374194 C55.6225,23.2012903 55.608125,23.1296774 55.603125,23.0864516 L55.603125,23.0864516 Z M50.94,5.3516129 L8.44125,5.3516129 C7.6325,5.3516129 6.97625,4.68 6.97625,3.8516129 L6.97625,1.50709677 C6.97625,0.678709677 7.6325,0.00774193548 8.44125,0.00774193548 L50.94,0.00774193548 C51.749375,0.00774193548 52.405,0.678709677 52.405,1.50709677 L52.405,3.8516129 C52.405,4.68 51.749375,5.3516129 50.94,5.3516129 L50.94,5.3516129 Z M8.44125,30.3941935 C9.4775,30.3941935 10.31625,31.2535484 10.31625,32.3135484 L10.31625,55.8709677 L10.506875,55.8709677 L13.81375,50.2309677 C14.069375,49.7948387 14.52875,49.5290323 15.025625,49.5290323 L44.355625,49.5290323 C44.8525,49.5290323 45.311875,49.7948387 45.5675,50.2309677 L48.874375,55.8709677 L49.065,55.8709677 L49.065,32.3135484 C49.065,31.2535484 49.904375,30.3941935 50.94,30.3941935 C51.975625,30.3941935 52.815,31.2535484 52.815,32.3135484 L52.815,57.7896774 C52.815,58.8490323 51.975625,59.7083871 50.94,59.7083871 L8.44125,59.7083871 C7.405625,59.7083871 6.566875,58.8490323 6.566875,57.7896774 L6.566875,32.3135484 C6.566875,31.2535484 7.405625,30.3941935 8.44125,30.3941935 L8.44125,30.3941935 Z" id="Shape"></path>
                    </g>
                </g>
            </g>
        </g>
    </g>
</svg>