<?xml version="1.0" encoding="UTF-8" standalone="no"?>
<svg width="13px" height="22px" viewBox="0 0 13 22" version="1.1" xmlns="http://www.w3.org/2000/svg" xmlns:xlink="http://www.w3.org/1999/xlink" xmlns:sketch="http://www.bohemiancoding.com/sketch/ns">
    <!-- Generator: Sketch 3.3.3 (12081) - http://www.bohemiancoding.com/sketch -->
    <title>Rectangle 529 Copy + facebook</title>
    <desc>Created with Sketch.</desc>
    <defs></defs>
    <g id="Page-1" stroke="none" stroke-width="1" fill="none" fill-rule="evenodd" sketch:type="MSPage">
        <g id="Home-&gt;-Intro-Copy-7" sketch:type="MSArtboardGroup" transform="translate(-916.000000, -470.000000)">
            <g id="Rectangle-529-Copy-+-facebook" sketch:type="MSLayerGroup" transform="translate(898.000000, 456.000000)">
                <rect id="Rectangle-529-Copy" sketch:type="MSShapeGroup" x="0" y="0" width="50" height="50"></rect>
                <g id="facebook" transform="translate(13.000000, 13.000000)" sketch:type="MSShapeGroup">
                    <rect id="Rectangle-path" x="0" y="0" width="24" height="24"></rect>
                    <path d="M17.6916,5.2272 L14.2968,5.2272 C13.896,5.2272 13.4484,5.754 13.4484,6.4608 L13.4484,8.9112 L17.6916,8.9112 L17.6916,12.4044 L13.4484,12.4044 L13.4484,22.8948 L9.4416,22.8948 L9.4416,12.4044 L5.8104,12.4044 L5.8104,8.9112 L9.4416,8.9112 L9.4416,6.8556 C9.4416,3.9072 11.4888,1.5084 14.2968,1.5084 L17.6916,1.5084 L17.6916,5.2272 L17.6916,5.2272 Z" id="Shape" fill="#292929"></path>
                </g>
            </g>
        </g>
    </g>
</svg>