<?xml version="1.0" encoding="UTF-8" standalone="no"?>
<svg width="20px" height="16px" viewBox="0 0 20 16" version="1.1" xmlns="http://www.w3.org/2000/svg" xmlns:xlink="http://www.w3.org/1999/xlink" xmlns:sketch="http://www.bohemiancoding.com/sketch/ns">
    <!-- Generator: Sketch 3.3.3 (12081) - http://www.bohemiancoding.com/sketch -->
    <title>github</title>
    <desc>Created with Sketch.</desc>
    <defs></defs>
    <g id="Page-1" stroke="none" stroke-width="1" fill="none" fill-rule="evenodd" sketch:type="MSPage">
        <g id="Desktop" sketch:type="MSArtboardGroup" transform="translate(-205.000000, -865.000000)">
            <g id="github" sketch:type="MSLayerGroup" transform="translate(205.000000, 863.000000)">
                <rect id="Rectangle-path" sketch:type="MSShapeGroup" x="0" y="0" width="20" height="20"></rect>
                <path d="M13.111,11.466 C12.4,11.466 11.823,12.263 11.823,13.247 C11.823,14.231 12.4,15.028 13.111,15.028 C13.821,15.028 14.398,14.231 14.398,13.247 C14.398,12.263 13.822,11.466 13.111,11.466 L13.111,11.466 Z M17.593,6.829 C17.739,6.467 17.747,4.413 16.965,2.446 C16.965,2.446 15.172,2.642 12.458,4.505 C11.889,4.348 10.926,4.269 9.964,4.269 C9.001,4.269 8.038,4.348 7.469,4.505 C4.756,2.643 2.963,2.446 2.963,2.446 C2.181,4.413 2.189,6.467 2.335,6.829 C1.417,7.826 0.855,9.024 0.855,10.661 C0.855,17.776 6.758,17.89 8.248,17.89 C8.585,17.89 9.255,17.891 9.964,17.892 C10.672,17.891 11.343,17.89 11.68,17.89 C13.17,17.89 19.073,17.777 19.073,10.661 C19.072,9.024 18.511,7.826 17.593,6.829 L17.593,6.829 Z M9.991,17.015 L9.935,17.015 C6.201,17.015 3.292,16.57 3.292,12.941 C3.292,12.072 3.599,11.264 4.328,10.595 C5.544,9.478 7.601,10.07 9.935,10.07 C9.944,10.07 9.954,10.07 9.963,10.069 C9.972,10.07 9.982,10.07 9.99,10.07 C12.325,10.07 14.382,9.478 15.597,10.595 C16.326,11.264 16.632,12.072 16.632,12.941 C16.634,16.569 13.726,17.015 9.991,17.015 L9.991,17.015 Z M6.816,11.466 C6.106,11.466 5.529,12.263 5.529,13.247 C5.529,14.231 6.105,15.028 6.816,15.028 C7.527,15.028 8.104,14.231 8.104,13.247 C8.104,12.263 7.527,11.466 6.816,11.466 L6.816,11.466 Z" id="Shape" fill="#000000" sketch:type="MSShapeGroup"></path>
            </g>
        </g>
    </g>
</svg>