<?xml version="1.0" encoding="UTF-8" standalone="no"?>
<svg width="80px" height="80px" viewBox="0 0 80 80" version="1.1" xmlns="http://www.w3.org/2000/svg" xmlns:xlink="http://www.w3.org/1999/xlink">
    <!-- Generator: Sketch 39.1 (31720) - http://www.bohemiancoding.com/sketch -->
    <title>Artboard Copy 4</title>
    <desc>Created with Sketch.</desc>
    <defs></defs>
    <g id="icons" stroke="none" stroke-width="1" fill="none" fill-rule="evenodd">
        <g id="Artboard-Copy-4" fill="#D7D8DD">
            <g id="noun_24074_cc" transform="translate(0.000000, 5.000000)">
                <path d="M31.2488889,49.7955556 L23.3644444,29.5333333 L21.04,29.5333333 L12.9344444,49.7955556 C12.5577778,49.8811111 12.1744444,50.0011111 11.7877778,50.1566667 C11.4,50.3144444 11.0388889,50.4988889 10.7044444,50.7066667 L10.7044444,51.9011111 L18.4644444,51.9011111 L18.4644444,50.7066667 C17.6044444,50.2255556 16.6944444,49.9211111 15.7311111,49.7955556 L17.5844444,44.8011111 L24.5588889,44.8011111 L26.38,49.7955556 C25.9611111,49.8811111 25.5222222,50.0055556 25.0611111,50.1733333 C24.5988889,50.34 24.1688889,50.5177778 23.7733333,50.7066667 L23.7733333,51.9011111 L33.6044444,51.9011111 L33.6044444,50.7066667 C33.2911111,50.4988889 32.9244444,50.3144444 32.5066667,50.1566667 C32.0866667,50.0011111 31.6677778,49.8811111 31.2488889,49.7955556 L31.2488889,49.7955556 Z M18.3377778,42.7588889 L20.5055556,36.8222222 L21.1966667,34.0577778 L21.2588889,34.0577778 L21.8555556,36.7588889 L23.8977778,42.7588889 L18.3377778,42.7588889 L18.3377778,42.7588889 Z" id="Shape"></path>
                <path d="M76.8605921,0 L37.6460043,0 C35.9160808,0 34.5088373,1.39546777 34.5088373,3.11091541 L34.5088373,18.6943796 L1.56858351,18.6943796 C0.70250133,18.6943796 0,19.3898914 0,20.2498373 L0,60.6628506 C0,61.5227965 0.70250133,62.2183083 1.56858351,62.2183083 L15.6858351,62.2183083 L15.6858351,69.1445392 C15.6858351,69.7389463 16.0275623,70.2811344 16.5653623,70.5422291 C16.7838436,70.6488891 17.0191311,70.6999969 17.2544186,70.6999969 C17.5972662,70.6999969 17.9378729,70.5888928 18.2190975,70.3722398 L28.7745441,62.2183083 L43.9214588,62.2183083 C44.787541,62.2183083 45.4900423,61.5227965 45.4900423,60.6628506 L45.4900423,43.5528158 L48.8938685,43.5528158 C49.3991765,43.5528158 50.3167978,43.8705736 50.7134254,44.1827762 L58.9742584,50.6990329 C59.4829276,51.1001188 60.043136,51.3112166 60.5943811,51.3112166 C61.6632587,51.3112166 62.7455814,50.4801578 62.7455814,48.8924799 L62.7455814,43.5517048 L76.862833,43.5517048 C78.5927565,43.5517048 80,42.156237 80,40.4407893 L80,3.10980437 C79.9977592,1.39657881 78.5905157,0 76.8605921,0 L76.8605921,0 Z M42.3517549,59.1073929 L28.2345032,59.1073929 C27.8849332,59.1073929 27.5454469,59.2229412 27.2698244,59.43515 L18.8230022,65.9602951 L18.8230022,60.6617395 C18.8230022,59.8017936 18.1205008,59.1062818 17.2544186,59.1062818 L3.13716703,59.1062818 L3.13716703,21.805295 L34.5088373,21.805295 L34.5088373,40.4419004 C34.5088373,42.157348 35.9160808,43.5528158 37.6460043,43.5528158 L42.3517549,43.5528158 L42.3517549,59.1073929 L42.3517549,59.1073929 Z M76.8605921,40.4419004 L62.7433405,40.4419004 C61.013417,40.4419004 59.6061735,41.8373682 59.6061735,43.5528158 L59.6050531,47.223696 L52.6651915,41.7495959 C51.7061147,40.9918658 50.1196045,40.4419004 48.8927481,40.4419004 L37.6460043,40.4419004 L37.6460043,3.11091541 L76.8605921,3.11091541 L76.8605921,40.4419004 L76.8605921,40.4419004 Z" id="Shape"></path>
                <path d="M44.7077778,35.6877778 L46.4522222,35.6877778 L46.4522222,34.2988889 L53.2488889,34.2988889 L53.2488889,25.6111111 L44.7088889,25.6111111 L44.7088889,35.6877778 L44.7077778,35.6877778 Z M46.4511111,27.2944444 L51.4744444,27.2944444 L51.4744444,32.6144444 L46.4511111,32.6144444 L46.4511111,27.2944444 L46.4511111,27.2944444 Z" id="Shape"></path>
                <rect id="Rectangle-path" x="43.3477778" y="13.3177778" width="10.8466667" height="1.68444444"></rect>
                <rect id="Rectangle-path" x="44.9144444" y="9.32888889" width="8.15555556" height="1.62555556"></rect>
                <path d="M56.6177778,35.7466667 L58.5088889,35.7466667 L58.5088889,34.3866667 L67.1377778,34.3866667 L67.1377778,35.5688889 L69.0588889,35.5688889 L69.0588889,24.99 L56.6177778,24.99 L56.6177778,35.7466667 L56.6177778,35.7466667 Z M58.5088889,26.7933333 L67.1377778,26.7933333 L67.1377778,32.5555556 L58.5088889,32.5555556 L58.5088889,26.7933333 L58.5088889,26.7933333 Z" id="Shape"></path>
                <path d="M71.1266667,20.7355556 L68.1722222,20.7355556 L68.1722222,14.5 L61.4355556,14.5 L61.9366667,11.19 L70.0344444,11.19 L70.0344444,9.41666667 L55.3455556,9.41666667 L55.3455556,11.19 L60.0155556,11.19 C59.8377778,12.2244444 59.6611111,13.3777778 59.4833333,14.5 L55.9366667,14.5 L55.9366667,16.2733333 L59.1877778,16.2733333 C58.8933333,17.8988889 58.5966667,19.4355556 58.3311111,20.7366667 L54.2822222,20.7366667 L54.2822222,22.5377778 L71.1255556,22.5377778 L71.1255556,20.7355556 L71.1266667,20.7355556 Z M66.2511111,20.7355556 L60.31,20.7355556 C60.5777778,19.4355556 60.8722222,17.8688889 61.1377778,16.2722222 L66.2511111,16.2722222 L66.2511111,20.7355556 L66.2511111,20.7355556 Z" id="Shape"></path>
                <rect id="Rectangle-path" x="44.7377778" y="17.4544444" width="8.42222222" height="1.62555556"></rect>
                <rect id="Rectangle-path" x="44.7377778" y="21.5333333" width="8.42222222" height="1.62555556"></rect>
            </g>
        </g>
    </g>
</svg>