<?xml version="1.0" encoding="UTF-8" standalone="no"?>
<svg width="80px" height="80px" viewBox="0 0 80 80" version="1.1" xmlns="http://www.w3.org/2000/svg" xmlns:xlink="http://www.w3.org/1999/xlink">
    <!-- Generator: Sketch 39.1 (31720) - http://www.bohemiancoding.com/sketch -->
    <title>Artboard Copy 2</title>
    <desc>Created with Sketch.</desc>
    <defs></defs>
    <g id="icons" stroke="none" stroke-width="1" fill="none" fill-rule="evenodd">
        <g id="Artboard-Copy-2" fill="#D9DADE">
            <path d="M68.2850315,11.7151562 C60.4726307,3.905 50.2383856,0 39.9992969,0 C29.7625518,0 19.525963,3.905 11.715906,11.7151562 C-3.90530198,27.3365625 -3.90530198,52.6635938 11.715906,68.28625 C19.525963,76.09375 29.7625518,80 39.9992969,80 C50.2383856,80 60.4726307,76.09375 68.2850315,68.2860938 C83.9049895,52.6635938 83.9049895,27.3364062 68.2850315,11.7151562 L68.2850315,11.7151562 Z M6.01785329,53.79875 C4.2369384,49.4067188 3.33351237,44.763125 3.33351237,40 C3.33351237,35.235625 4.23678215,30.5932813 6.01785329,26.2 C7.86236112,21.6540625 10.5721705,17.5745313 14.0732198,14.0723438 C17.5741128,10.5714063 21.6548423,7.86140625 26.2007221,6.018125 C30.5695728,4.246875 35.184983,3.34484375 39.9200791,3.33375 L39.9200791,3.33625 C39.9639848,3.33875 44.3939286,3.57546875 48.8054351,5.88875 C54.5695807,8.91 57.494231,13.938125 57.494231,20.83625 C57.494231,27.6942188 54.6011428,32.7076563 48.9005901,35.73375 C44.4865837,38.07625 39.9627348,38.3326563 39.9199229,38.335 C39.7099256,38.3459375 34.7038954,38.6132813 29.6466158,41.2646875 C24.868864,43.7695313 19.174405,48.90625 19.174405,59.165 C19.174405,65.7178125 21.4998442,70.183125 24.4257446,73.2054688 C20.5879808,71.4085938 17.1125562,68.9646875 14.0730635,65.9276563 C10.5721705,62.4267188 7.86220487,58.3446875 6.01785329,53.79875 L6.01785329,53.79875 Z M65.9267802,65.9278125 C62.4258872,69.42875 58.3439077,72.13875 53.798028,73.9820312 C49.4327709,75.7520312 44.8186107,76.6553125 40.0824208,76.6651562 L40.0824208,76.6651562 C40.0372652,76.6603125 35.5121663,76.4039062 31.1006599,74.0626562 C25.3988572,71.0353125 22.507019,66.023125 22.507019,59.1651563 C22.507019,52.3048438 25.3988572,47.2926563 31.1006599,44.2676563 C35.5121663,41.9239063 40.0372652,41.6675 40.0800771,41.6651563 C40.2913244,41.6554688 45.2973546,41.386875 50.3533842,38.7354688 C55.131136,36.231875 60.8245013,31.0939063 60.8245013,20.83625 C60.8245013,14.2810938 58.500312,9.81703125 55.5755054,6.79453125 C59.4132692,8.59140625 62.8897875,11.0340625 65.9269365,14.0723438 C69.4278295,17.5745313 72.1377951,21.6540625 73.9833967,26.2 C75.7632178,30.5932813 76.6664876,35.235625 76.6664876,40 C76.6664876,44.763125 75.7632178,49.4067187 73.9833967,53.79875 C72.1376389,58.3446875 69.4276733,62.4267187 65.9267802,65.9278125 L65.9267802,65.9278125 Z" id="Shape"></path>
            <path d="M39.9669463,54.7891671 C37.2211063,54.7891671 34.9861129,57.0241604 34.9861129,59.7700005 C34.9861129,62.5181753 37.2211063,64.7508338 39.9669463,64.7508338 C42.7138759,64.7508338 44.9490249,62.5181753 44.9490249,59.7700005 C44.9488692,57.0241604 42.7138759,54.7891671 39.9669463,54.7891671 L39.9669463,54.7891671 Z M39.9669463,61.428618 C39.050006,61.428618 38.3070836,60.6867851 38.3070836,59.7700005 C38.3070836,58.8532158 39.050006,58.1113829 39.9669463,58.1113829 C40.8838866,58.1113829 41.6278986,58.8530602 41.6278986,59.7700005 C41.6278986,60.6869408 40.883731,61.428618 39.9669463,61.428618 L39.9669463,61.428618 Z" id="Shape"></path>
            <path d="M39.9669463,24.9041669 C42.7138759,24.9041669 44.9490249,22.6702631 44.9490249,19.9233335 C44.9490249,17.1764039 42.7140316,14.9425001 39.9669463,14.9425001 C37.2211063,14.9425001 34.9861129,17.1764039 34.9861129,19.9233335 C34.9861129,22.6702631 37.2211063,24.9041669 39.9669463,24.9041669 L39.9669463,24.9041669 Z M39.9669463,18.2634708 C40.8838866,18.2634708 41.6280542,19.0063932 41.6280542,19.9233335 C41.6280542,20.8402738 40.8838866,21.5831962 39.9669463,21.5831962 C39.050006,21.5831962 38.3070836,20.8402738 38.3070836,19.9233335 C38.3070836,19.0063932 39.050006,18.2634708 39.9669463,18.2634708 L39.9669463,18.2634708 Z" id="Shape"></path>
        </g>
    </g>
</svg>