<?xml version="1.0" encoding="UTF-8" standalone="no"?>
<svg width="80px" height="80px" viewBox="0 0 80 80" version="1.1" xmlns="http://www.w3.org/2000/svg" xmlns:xlink="http://www.w3.org/1999/xlink">
    <!-- Generator: Sketch 39.1 (31720) - http://www.bohemiancoding.com/sketch -->
    <title>Artboard Copy</title>
    <desc>Created with Sketch.</desc>
    <defs></defs>
    <g id="icons" stroke="none" stroke-width="1" fill="none" fill-rule="evenodd">
        <g id="Artboard-Copy" fill="#D7D8DD">
            <path d="M51.967404,80 L51.967404,80 C51.2223516,80 50.5704307,79.3919653 50.5704307,78.6970684 L50.7566938,59.2399566 C49.6391153,59.0662324 48.5215367,58.6319218 47.5902212,58.1107492 C46.3795111,57.4158523 45.355064,56.5472313 44.6100116,55.4180239 C43.2130384,55.3311618 41.8160652,54.8968512 40.6053551,54.2019544 C38.6495925,53.072747 37.1594878,51.422367 36.5075669,49.4245385 C33.8998836,50.2931596 30.919674,50.0325733 28.4051222,48.6427796 C27.1944121,47.9478827 26.1699651,47.0792617 25.3317811,45.9500543 C24.3073341,46.2975027 23.2828871,46.4712269 22.1653085,46.4712269 C18.8125728,46.4712269 15.8323632,44.907709 14.0628638,42.3018458 L13.5972061,42.3018458 C8.2887078,42.3018458 4.00465658,38.3061889 4.00465658,33.3550489 C4.00465658,33.0076004 4.00465658,32.7470141 4.09778813,32.3995657 C1.49010477,30.7491857 0,28.0564604 0,25.1031488 C0,21.5418024 2.32828871,18.3279045 5.68102445,16.9381107 C5.5878929,16.4169381 5.49476135,15.8957655 5.49476135,15.3745928 C5.49476135,10.4234528 9.77881257,6.42779587 15.0873108,6.42779587 C16.2048894,6.42779587 17.322468,6.60152009 18.4400466,6.94896851 C19.8370198,3.56134636 23.3760186,1.21606949 27.3806752,1.21606949 C29.3364377,1.21606949 31.2922002,1.73724213 32.8754366,2.7795874 C34.644936,1.04234528 37.1594878,0 39.9534342,0 C42.8405122,0 45.4481956,1.21606949 47.3108265,3.21389794 C48.8009313,2.25841477 50.6635623,1.73724213 52.5261932,1.73724213 C57.3690338,1.73724213 61.3736903,5.12486428 62.0256112,9.4679696 C62.5844005,9.38110749 63.1431898,9.29424539 63.701979,9.29424539 C69.0104773,9.29424539 73.2945285,13.2899023 73.2945285,18.2410423 C73.2945285,18.762215 73.2945285,19.2833876 73.201397,19.7176982 C77.2060536,20.8469055 80,24.2345277 80,28.2301846 C80,30.4885993 79.0686845,32.660152 77.3923166,34.310532 C78.7892899,35.8740499 79.6274738,37.8718784 79.6274738,39.9565689 C79.6274738,43.7785016 77.112922,47.0792617 73.2945285,48.2953312 C73.0151339,52.9858849 68.8242142,56.8078176 63.7951106,56.8078176 C62.677532,56.8078176 61.5599534,56.6340934 60.5355064,56.286645 L60.5355064,78.1758958 C60.5355064,78.8707926 59.8835856,79.4788274 59.1385332,79.4788274 C58.3934808,79.4788274 57.6484284,78.8707926 57.6484284,78.1758958 L57.6484284,54.2019544 C57.6484284,53.6807818 57.9278231,53.2464712 58.3934808,53.072747 C58.8591385,52.8121607 59.4179278,52.8990228 59.8835856,53.1596091 L60.2561118,53.4201954 C61.2805588,54.0282302 62.4912689,54.2888165 63.701979,54.2888165 C67.427241,54.2888165 70.5005821,51.422367 70.5005821,47.9478827 L70.5005821,47.6004343 L70.5005821,47.5135722 C70.5005821,46.9055375 70.8731083,46.2975027 71.6181607,46.1237785 C74.6915017,45.4288817 76.8335274,42.9098806 76.8335274,39.9565689 C76.8335274,38.1324647 75.9953434,36.3952226 74.5052386,35.1791531 C74.225844,34.9185668 74.0395809,34.5711183 74.0395809,34.1368078 C74.0395809,33.7893594 74.225844,33.3550489 74.5983702,33.1813246 C76.2747381,31.9652552 77.2060536,30.1411509 77.2060536,28.2301846 C77.2060536,25.1031488 74.6915017,22.4104235 71.338766,21.9761129 C70.9662398,21.8892508 70.5937136,21.7155266 70.314319,21.3680782 C70.1280559,21.0206298 70.0349243,20.5863192 70.2211874,20.2388708 C70.5005821,19.5439739 70.5937136,18.8490771 70.5937136,18.1541802 C70.5937136,14.679696 67.5203725,11.8132465 63.7951106,11.8132465 C62.9569267,11.8132465 62.1187427,11.9869707 61.2805588,12.247557 C60.814901,12.4212812 60.3492433,12.3344191 59.9767171,12.0738328 C59.6041909,11.8132465 59.4179278,11.3789359 59.4179278,10.9446254 L59.4179278,10.5103149 C59.4179278,7.03583062 56.3445867,4.16938111 52.6193248,4.16938111 C50.9429569,4.16938111 49.2665891,4.77741585 48.0558789,5.90662324 C47.7764843,6.16720955 47.3108265,6.34093377 46.9383003,6.25407166 C46.4726426,6.16720955 46.193248,5.99348534 45.9138533,5.64603692 C44.6100116,3.82193268 42.3748545,2.60586319 39.9534342,2.60586319 C37.6251455,2.60586319 35.4831199,3.73507058 34.2724098,5.55917481 C34.0861467,5.90662324 33.7136205,6.08034745 33.2479627,6.16720955 C32.782305,6.25407166 32.4097788,6.08034745 32.1303842,5.81976113 C30.8265425,4.69055375 29.1501746,3.99565689 27.3806752,3.99565689 C24.121071,3.99565689 21.3271246,6.16720955 20.7683353,9.20738328 C20.6752037,9.64169381 20.3958091,9.98914224 19.9301513,10.1628664 C19.5576251,10.3365907 18.9988359,10.3365907 18.6263097,10.0760043 C17.6018626,9.4679696 16.3911525,9.20738328 15.1804424,9.20738328 C11.4551804,9.20738328 8.38183935,12.0738328 8.38183935,15.548317 C8.38183935,16.2432139 8.4749709,16.8512486 8.75436554,17.4592834 C8.84749709,17.8067318 8.84749709,18.1541802 8.66123399,18.5016287 C8.4749709,18.8490771 8.19557625,19.0228013 7.82305006,19.1096634 C4.93597206,19.8914224 2.887078,22.3235613 2.887078,25.1900109 C2.887078,27.5352877 4.28405122,29.6199783 6.42607683,30.7491857 C6.98486612,31.009772 7.26426077,31.6178067 7.07799767,32.1389794 C6.98486612,32.5732899 6.89173458,33.0076004 6.89173458,33.441911 C6.89173458,36.9163952 9.96507567,39.7828447 13.6903376,39.7828447 C13.9697322,39.7828447 14.3422584,39.7828447 14.7147846,39.6959826 C15.2735739,39.6091205 15.9254948,39.8697068 16.2048894,40.3908795 C17.322468,42.5624321 19.6507567,43.8653637 22.25844,43.8653637 C23.3760186,43.8653637 24.4004657,43.6047774 25.3317811,43.1704669 C25.7043073,42.9967427 26.0768335,42.9967427 26.4493597,43.0836048 C26.8218859,43.1704669 27.1012806,43.4310532 27.2875437,43.7785016 C27.8463329,44.907709 28.7776484,45.8631922 29.895227,46.4712269 C32.0372526,47.6872964 34.644936,47.6872964 36.7869616,46.4712269 C37.1594878,46.2106406 37.7182771,46.2106406 38.0908033,46.3843648 C38.556461,46.558089 38.8358556,46.9055375 38.8358556,47.339848 C39.1152503,49.2508143 40.3259604,50.9011944 42.0954598,51.9435396 C43.1199069,52.4647123 44.2374854,52.8121607 45.4481956,52.8121607 C45.9138533,52.8121607 46.3795111,53.072747 46.6589057,53.5070575 C47.217695,54.4625407 48.0558789,55.2442997 49.080326,55.8523344 C50.0116414,56.3735071 51.12922,56.7209555 52.2467986,56.7209555 C52.991851,56.7209555 53.5506403,57.3289902 53.5506403,58.0238871 L53.3643772,78.6970684 C53.3643772,79.3919653 52.7124563,80 51.967404,80 L51.967404,80 Z" id="Shape"></path>
        </g>
    </g>
</svg>